# xmcd
#
# Track frame offsets:
#	150
#	17722
#	41342
#	58614
#	75232
#	102431
#	112080
#	128842
#	145754
#	160201
#	177017
#	199786
#	213586
#	225473
#	250153
#	267604
#	280150
#	297063
#	317402
#	341824
#
# Disc length: 4784 seconds
#
# Revision: 3
# Processed by: cddbd v1.5.2PL0 Copyright (c) Steve Scherf et al.
# Submitted via: EZCDAudioConverter 6.0.0.1
#
DISCID=1d12ae14
DTITLE=Various Artist - Akella Presents - vol.68 - Russia-Blues  CD1 (com)
DYEAR=2016
DGENRE=Blues
TTITLE0=Big Blues Revival - I'm Forget
TTITLE1=Wild Honey - Prodigal Blues
TTITLE2=Madera Hard Blues - Nonsense
TTITLE3=Ksenia Fedulova - Better Not Touch
TTITLE4=Vladimir Fedorenko - Autumn Rains
TTITLE5=Asanbai - Cow Beer
TTITLE6=Anatoly Jimaev - He Don't Plays The Blues
TTITLE7=Road To Mississippi - Lonely Man Blues
TTITLE8=Wild Honey - Bitch
TTITLE9=Chizh and Co - Hoochie Coochie Man
TTITLE10=Alexander Dolgov - The Rain In The Night
TTITLE11=The Time Machine - Sometimes I Sing
TTITLE12=Blues League - She Needs a Hero
TTITLE13=Vladimir Korovin - Black Square
TTITLE14=Bravo - I What We Need
TTITLE15=Denis Mazhukov - A Gentleman Of Fortune
TTITLE16=Blues Experimental Shop - House Of Midnight Blues
TTITLE17=Alexander Stashkevich - Maniacal Blues
TTITLE18=Madera Hard Blues - The Machine
TTITLE19=Eugene Margulis - Last
EXTD=
EXTT0=
EXTT1=
EXTT2=
EXTT3=
EXTT4=
EXTT5=
EXTT6=
EXTT7=
EXTT8=
EXTT9=
EXTT10=
EXTT11=
EXTT12=
EXTT13=
EXTT14=
EXTT15=
EXTT16=
EXTT17=
EXTT18=
EXTT19=
PLAYORDER=
